<?xml version="1.0" standalone="no"?>
<!DOCTYPE svg PUBLIC "-//W3C//DTD SVG 20010904//EN" "http://www.w3.org/TR/2001/REC-SVG-20010904/DTD/svg10.dtd">
<svg
    version="1.0"
    xmlns="http://www.w3.org/2000/svg"
    width="512.000000pt"
    height="512.000000pt"
    viewBox="0 0 512.000000 512.000000"
    preserveAspectRatio="xMidYMid meet"
>
    <g
        transform="translate(0.000000,512.000000) scale(0.100000,-0.100000)"
        fill="#000000"
        stroke="none"
    >
        <path
            d="M2430 5078 c-350 -178 -1847 -978 -1867 -998 -55 -54 -53 -1 -53
-1210 0 -1219 -3 -1157 56 -1212 28 -25 2696 -1658 2710 -1658 13 0 -6 804
-19 816 -7 6 -180 113 -385 238 l-373 226 -29 -20 c-77 -55 -211 -40 -276 32
-80 87 -70 243 19 311 76 57 186 62 260 11 58 -40 99 -121 95 -188 l-3 -49
245 -149 c135 -82 306 -187 380 -232 l135 -83 230 139 c127 76 231 142 232
146 2 4 -321 204 -717 445 l-720 439 -32 -23 c-38 -28 -137 -38 -191 -20 -44
15 -103 71 -122 118 -21 49 -19 126 4 171 42 82 107 122 198 122 124 0 221
-104 211 -226 l-3 -44 748 -456 c411 -251 753 -453 760 -451 37 17 472 284
472 291 0 5 -235 152 -523 327 l-523 319 -43 -25 c-52 -30 -148 -35 -199 -9
-150 76 -164 280 -25 372 36 24 51 27 119 27 70 0 81 -3 121 -30 60 -43 92
-104 93 -179 l1 -60 554 -338 555 -337 29 27 c59 56 56 -7 56 1212 0 1209 2
1156 -53 1210 -14 14 -454 252 -978 530 -1101 582 -1004 542 -1149 468z m-20
-648 l0 -328 -242 -128 c-134 -70 -260 -138 -280 -151 l-38 -23 0 -653 0 -654
-282 -149 c-155 -82 -289 -151 -296 -152 -8 -2 -18 2 -23 10 -5 7 -9 293 -9
635 0 414 -3 624 -10 628 -6 4 -126 -54 -268 -129 -141 -74 -260 -132 -265
-127 -4 4 -6 155 -5 336 l3 328 845 447 c465 246 851 445 857 443 10 -4 13
-79 13 -333z"
        />
    </g>
</svg>
